# xmcd
#
# Track frame offsets: 
#        183
#        42258
#        117858
#        164343
#        182883
#
# Disc length: 3818 seconds
#
# Revision: 3
# Processed by: cddbd v1.5.2PL0 Copyright (c) Steve Scherf et al.
# Submitted via: ExactAudioCopy v0.99pb5
#
DISCID=3c0ee805
DTITLE=Seiji Ozawa and Boston Symphony Orchestra - The Philips Years [CD
DTITLE=16) - Mahler - Symphonies Nos.6 and 3 - No.3
DYEAR=1992
DGENRE=Classical
TTITLE0=Symphony No.3 in D minor - Part II - II. Tempo di minuetto. Se
TTITLE0=hr massig
TTITLE1=Symphony No.3 in D minor - Part II - III. Comodo. Scherzando. 
TTITLE1=Ohne hast
TTITLE2=Symphony No.3 in D minor - Part II - IV. Zarathustras Mitterna
TTITLE2=chtslied. Sehr langsam. Misterioso
TTITLE3=Symphony No.3 in D minor - Part II - V. Es sungen drei Engel. 
TTITLE3=Lustig im Tempo und keck im Ausdruck
TTITLE4=Symphony No.3 in D minor - Part II - VI. Langsam. Ruhervoll. E
TTITLE4=mpfunden
EXTD=YEAR: 2013
EXTT0=
EXTT1=
EXTT2=
EXTT3=
EXTT4=
PLAYORDER=
